<?xml version="1.0" standalone="no"?><!DOCTYPE svg PUBLIC "-//W3C//DTD SVG 1.1//EN" "http://www.w3.org/Graphics/SVG/1.1/DTD/svg11.dtd"><svg t="1774666652637" class="icon" viewBox="0 0 1024 1024" version="1.1" xmlns="http://www.w3.org/2000/svg" p-id="4786" xmlns:xlink="http://www.w3.org/1999/xlink" width="200" height="200"><path d="M772.64 534.24c3.84 1.216 7.04 3.872 8.96 7.36l1.152 2.752a320.832 320.832 0 0 0 199.616 205.792l9.568 3.2a15.36 15.36 0 0 1 2.72 28.16l-2.944 1.248a320.8 320.8 0 0 0-206.016 200.064l-3.168 9.568a15.232 15.232 0 0 1-27.936 2.656l-1.408-3.616c-30.368-96-104.736-172.384-199.424-205.536l-9.536-3.2a15.424 15.424 0 0 1-2.752-28.224l2.784-1.184c96-30.24 172.448-104.512 205.696-199.104l3.264-9.792a15.488 15.488 0 0 1 19.424-10.144zM768 660.256l-0.896 1.408a385.824 385.824 0 0 1-94.592 97.92l-12.256 8.384 1.696 1.12a385.824 385.824 0 0 1 97.6 94.4l8.448 12.192 0.832-1.28a385.792 385.792 0 0 1 94.656-97.952l12.224-8.448-1.6-1.056a385.824 385.824 0 0 1-97.76-94.56L768 660.256zM432.384 32.96a512.96 512.96 0 0 0 355.584 363.648l12.128 3.296a16.64 16.64 0 0 1 2.88 31.168l-2.816 1.024a512.96 512.96 0 0 0-365.056 356.928l-2.976 10.976a16.64 16.64 0 0 1-31.264 2.816l-1.056-3.104A512.96 512.96 0 0 0 44.064 435.392l-11.072-3.008a16.928 16.928 0 0 1-2.88-31.744l2.88-1.024A512.96 512.96 0 0 0 396.288 45.216l3.328-12.16a16.928 16.928 0 0 1 32.768-0.096zM416 167.968l-1.888 3.68a578.464 578.464 0 0 1-242.816 242.56l-3.36 1.728 3.68 1.92a578.464 578.464 0 0 1 242.56 242.816l1.728 3.328 1.92-3.648a578.464 578.464 0 0 1 242.816-242.56L664 416l-3.648-1.888a578.464 578.464 0 0 1-242.56-242.816L416 168z" p-id="4787"></path></svg>