<?xml version="1.0" standalone="no"?><!DOCTYPE svg PUBLIC "-//W3C//DTD SVG 1.1//EN" "http://www.w3.org/Graphics/SVG/1.1/DTD/svg11.dtd"><svg t="1774594355581" class="icon" viewBox="0 0 1024 1024" version="1.1" xmlns="http://www.w3.org/2000/svg" p-id="5437" xmlns:xlink="http://www.w3.org/1999/xlink" width="200" height="200"><path d="M851.085 98.358h-65.593c-17.452 0-31.6 14.15-31.6 31.6s14.148 31.602 31.6 31.602h65.593c16.109 0 29.224 13.115 29.224 29.224v110.34H174.774v-110.34c0-16.11 13.115-29.225 29.224-29.225h65.562c17.452 0 31.601-14.15 31.601-31.601s-14.15-31.6-31.6-31.6h-65.563c-50.965 0-92.426 41.46-92.426 92.426v653.8c0 50.95 41.46 92.41 92.426 92.41h647.087c50.966 0 92.426-41.46 92.426-92.41v-653.8c0-50.966-41.46-92.426-92.426-92.426z m0 775.434H203.998c-16.109 0-29.224-13.1-29.224-29.21V364.326h705.535v480.258c0 16.109-13.115 29.209-29.224 29.209z" p-id="5438"></path><path d="M459.38 161.559h136.74c17.451 0 31.6-14.15 31.6-31.601s-14.149-31.6-31.6-31.6H459.38c-17.452 0-31.601 14.148-31.601 31.6s14.15 31.6 31.6 31.6zM364.592 206.338c17.453 0 31.6-17.1 31.6-38.188V91.77c0-21.093-14.147-38.19-31.6-38.19-17.45 0-31.601 17.097-31.601 38.19v76.38c0 21.088 14.151 38.188 31.6 38.188zM690.922 206.338c17.45 0 31.6-17.1 31.6-38.188V91.77c0-21.093-14.15-38.19-31.6-38.19s-31.6 17.097-31.6 38.19v76.38c0 21.088 14.15 38.188 31.6 38.188zM748.753 486.083H306.345c-17.453 0-31.6 14.147-31.6 31.6 0 17.45 14.147 31.601 31.6 31.601h442.408c17.452 0 31.6-14.151 31.6-31.6 0-17.454-14.148-31.601-31.6-31.601zM748.753 677.661H306.345c-17.453 0-31.6 14.147-31.6 31.6 0 17.45 14.147 31.601 31.6 31.601h442.408c17.452 0 31.6-14.15 31.6-31.6 0-17.454-14.148-31.601-31.6-31.601z" p-id="5439"></path></svg>