<?xml version="1.0" standalone="no"?><!DOCTYPE svg PUBLIC "-//W3C//DTD SVG 1.1//EN" "http://www.w3.org/Graphics/SVG/1.1/DTD/svg11.dtd"><svg t="1775131261950" class="icon" viewBox="0 0 1024 1024" version="1.1" xmlns="http://www.w3.org/2000/svg" p-id="6219" xmlns:xlink="http://www.w3.org/1999/xlink" width="200" height="200"><path d="M463.523427 139.276067l84.503603 45.270043c6.03546 4.055362 6.03546 9.05319 0 15.089673l-6.03546 6.03546c52.296063 106.667392 167.971619 199.188598 347.069647 277.656741 1.982144 6.03546 0.991584 9.054213-3.016707 9.054213-32.207539 6.03546-65.406662 27.161616-99.594299 63.377446-120.720456-90.540086-205.225081-204.186426-253.511831-341.034187l-3.01773 3.01773C429.287695 362.608551 300.551682 491.39266 143.614373 604.049462c-8.063653 0-11.082406-4.007267-9.055237-12.071943C275.36914 479.320717 385.055285 328.419891 463.523427 139.276067zM306.586119 573.870116l307.836087-9.05626 30.181393-39.23356 72.431659 51.307549c4.00829 4.055362 4.00829 7.073092 0 9.054213l-27.161616 27.161616c-52.343135 84.504626-127.794571 175.045735-226.350215 271.620257l-9.055237-9.052167c66.397223-94.5494 118.693286-193.153138 156.936285-295.765167l-205.225081 9.054213c-16.127306 0-36.21583 3.01773-60.359716 9.054213 1.981121 0 0 1.037632-6.03546 3.01773L306.586119 573.870116zM463.523427 371.662765c56.304354 26.172079 88.511893 53.333696 96.575546 81.485873-2.02717 20.136619-16.127306 37.253462-42.252313 51.306526-22.162766 6.03546-33.197076 1.037632-33.197076-15.090697 1.981121-44.23241-7.073092-81.485873-27.16264-111.666242C455.458751 373.689934 457.486944 371.662765 463.523427 371.662765z" p-id="6220"></path></svg>